<svg width="256" height="256" viewBox="0 0 256 256" fill="none" xmlns="http://www.w3.org/2000/svg">
<g clip-path="url(#clip0_37_140)">
<rect width="256" height="256" fill="#FF9500"/>
<path d="M127.433 153.878C124.198 153.91 120.993 153.297 118.024 152.079C115.264 150.954 112.819 149.235 110.883 147.058C108.96 144.931 107.626 142.384 107 139.647L113.49 137.552C114.207 140.519 115.991 143.158 118.534 145.017C121.202 146.841 124.428 147.784 127.717 147.702C129.868 147.752 132.005 147.358 133.98 146.548C135.604 145.862 136.989 144.754 137.976 143.352C138.891 142.028 139.374 140.478 139.364 138.895C139.435 137.235 138.814 135.615 137.636 134.384C136.211 133.047 134.443 132.084 132.506 131.592L122.927 128.906C119.725 128.025 116.873 126.258 114.737 123.832C112.832 121.54 111.83 118.692 111.903 115.776C111.879 113.016 112.707 110.31 114.283 107.989C115.891 105.589 118.139 103.634 120.802 102.324C123.748 100.87 127.031 100.141 130.352 100.203C133.388 100.148 136.399 100.735 139.166 101.921C141.638 102.976 143.828 104.545 145.571 106.513C147.23 108.387 148.404 110.603 149 112.984L142.652 115.159C141.988 112.564 140.408 110.261 138.174 108.634C135.871 107.032 133.066 106.209 130.211 106.298C128.257 106.281 126.324 106.666 124.543 107.426C122.937 108.076 121.561 109.148 120.575 110.513C119.621 111.892 119.128 113.511 119.158 115.159C119.145 116.801 119.736 118.396 120.83 119.67C122.224 121.161 124.061 122.219 126.101 122.704L134.802 125.389C138.274 126.251 141.412 128.041 143.842 130.544C145.787 132.815 146.794 135.678 146.676 138.6C146.681 141.311 145.843 143.963 144.267 146.225C142.585 148.573 140.291 150.47 137.607 151.73C134.451 153.22 130.959 153.958 127.433 153.878ZM121.595 160L131.344 94H137.012L127.206 160H121.595Z" fill="#16120F"/>
</g>
<defs>
<clipPath id="clip0_37_140">
<rect width="256" height="256" fill="white"/>
</clipPath>
</defs>
</svg>
