<svg width="256" height="256" viewBox="0 0 256 256" fill="none" xmlns="http://www.w3.org/2000/svg">
<g clip-path="url(#clip0_37_90)">
<rect width="256" height="256" fill="#FA64B5"/>
<path d="M123.946 172L80.261 132.27C75.1414 127.146 72.1863 120.244 72.0085 112.995C71.8307 105.747 74.4437 98.7074 79.3058 93.3376C84.1679 87.9678 90.9059 84.6792 98.1225 84.1539C105.339 83.6287 112.481 85.907 118.066 90.5163L123.946 95.7011L129.649 90.5163C132.334 87.7589 135.554 85.5812 139.111 84.1174C142.668 82.6536 146.486 81.9346 150.33 82.0047C154.174 82.0747 157.964 82.9324 161.465 84.5248C164.966 86.1172 168.105 88.4107 170.689 91.2643C173.273 94.1178 175.246 97.4709 176.489 101.117C177.731 104.764 178.215 108.626 177.912 112.467C177.609 116.308 176.525 120.047 174.726 123.452C172.928 126.858 170.453 129.858 167.454 132.27L123.946 172Z" fill="#A3EA71"/>
</g>
<defs>
<clipPath id="clip0_37_90">
<rect width="256" height="256" fill="white"/>
</clipPath>
</defs>
</svg>
