<svg width="256" height="256" viewBox="0 0 256 256" fill="none" xmlns="http://www.w3.org/2000/svg">
<g clip-path="url(#clip0_37_127)">
<rect width="256" height="256" fill="#A3EA71"/>
<path d="M104.862 152.199H95.0204C92.5612 152.006 90.2669 150.885 88.602 149.062C87.3542 147.705 86.5117 146.024 86.1704 144.211C85.8291 142.398 86.0027 140.525 86.6714 138.806C87.3402 137.086 88.4772 135.59 89.9531 134.486C91.4291 133.382 93.1848 132.715 95.0204 132.561H110.58L120.616 122.508L93.1144 105.52C90.9753 104.224 89.4163 102.154 88.7608 99.7379C88.1053 97.3219 88.4036 94.7459 89.5939 92.5444C90.1109 91.3132 90.8718 90.1997 91.8307 89.2714C92.7992 88.2835 93.9569 87.5016 95.2344 86.9725C96.5095 86.4942 97.8679 86.2788 99.2281 86.339C100.588 86.3993 101.922 86.734 103.15 87.3232L139.113 103.98L156.482 86.4465C158.384 84.7929 160.84 83.921 163.357 84.0056C165.874 84.0903 168.266 85.1253 170.053 86.9029C171.84 88.6805 172.89 91.0693 172.992 93.59C173.094 96.1106 172.24 98.5766 170.603 100.493L153.098 117.891L169.63 154.244C170.179 155.471 170.477 156.796 170.505 158.141C170.547 159.472 170.315 160.799 169.825 162.037C169.326 163.237 168.599 164.329 167.685 165.252C166.757 166.201 165.645 166.95 164.418 167.453C162.22 168.645 159.648 168.944 157.236 168.288C154.824 167.631 152.757 166.069 151.464 163.927L134.504 136.379L124.468 146.432V162.018C124.249 164.471 123.122 166.753 121.308 168.416C119.493 170.078 117.124 171 114.665 171C112.206 171 109.836 170.078 108.022 168.416C106.208 166.753 105.08 164.471 104.862 162.018V152.199Z" fill="#FA64B5"/>
</g>
<defs>
<clipPath id="clip0_37_127">
<rect width="256" height="256" fill="white"/>
</clipPath>
</defs>
</svg>
