<svg width="256" height="256" viewBox="0 0 256 256" fill="none" xmlns="http://www.w3.org/2000/svg">
<g clip-path="url(#clip0_37_96)">
<rect width="256" height="256" fill="#A3EA71"/>
<path d="M156.19 127.453C156.449 134.961 156.708 142.422 156.967 149.883C157.226 157.344 157.508 164.946 157.72 172.477C157.749 173.713 157.574 174.946 157.202 176.125C156.804 177.635 155.9 178.961 154.64 179.883C153.38 180.804 151.841 181.264 150.282 181.185C148.675 181.004 147.178 180.277 146.043 179.124C144.908 177.972 144.202 176.464 144.045 174.854C143.857 173.293 143.771 171.72 143.787 170.147C143.787 156.543 143.747 142.947 143.669 129.359C143.669 128.7 143.528 127.735 143.08 127.429C140.268 125.454 137.895 122.918 136.109 119.982C134.323 117.045 133.163 113.772 132.701 110.366C130.457 100.354 132.124 89.8632 137.361 81.0401C138.386 78.9975 139.876 77.2241 141.712 75.8628C143.547 74.5015 145.677 73.5903 147.929 73.2026C150.843 72.7577 153.823 73.142 156.528 74.3116C159.234 75.4812 161.555 77.3888 163.227 79.8162C166.818 84.6183 169.009 90.3205 169.558 96.2914C170.558 102.851 169.911 109.556 167.676 115.803C166.831 118.521 165.347 120.997 163.349 123.024C161.351 125.051 158.896 126.57 156.19 127.453Z" fill="#16120F"/>
<path d="M108.553 123.546C108.742 129.053 108.977 134.796 109.165 140.539C109.573 151.397 109.958 162.263 110.318 173.136C110.417 174.182 110.29 175.236 109.947 176.228C109.605 177.221 109.054 178.129 108.332 178.891C107.61 179.653 106.733 180.252 105.76 180.648C104.788 181.044 103.742 181.227 102.693 181.185C101.764 181.242 100.835 181.095 99.9691 180.756C99.1032 180.417 98.3216 179.893 97.6787 179.221C97.0358 178.549 96.547 177.745 96.2464 176.865C95.9458 175.985 95.8405 175.05 95.938 174.125C96.1027 168.194 96.3616 162.357 96.597 156.332L97.7973 125.97C97.7973 125.052 97.7973 124.134 97.7973 123.264C90.1482 120.839 86.8531 116.909 86.7354 108.977C86.7354 99.8453 87.112 90.6898 87.3238 81.5579C87.3238 80.5223 87.3238 79.4632 87.3238 78.4041C87.331 77.6685 87.4098 76.9355 87.5592 76.2152C87.7052 75.2035 88.2443 74.2901 89.0594 73.6732C89.8745 73.0564 90.9 72.7858 91.9133 72.9202C93.961 73.1556 95.0907 74.5677 95.0672 76.9919C95.0672 81.0166 94.9259 85.0412 94.8553 89.0423C94.8553 92.0784 94.8553 95.1146 94.8553 98.1272C94.8553 100.316 95.7732 101.469 97.4443 101.469C99.1153 101.469 100.033 100.198 100.057 98.0801C100.057 90.9723 100.112 83.8644 100.222 76.7566C100.198 73.7675 102.151 72.2377 104.67 73.2026C105.345 73.4392 105.919 73.8998 106.296 74.5079C106.672 75.116 106.83 75.8348 106.741 76.5447C106.647 83.7153 106.592 90.886 106.576 98.0566C106.576 100.41 107.941 101.752 110.107 101.422C110.879 101.284 111.569 100.856 112.037 100.226C112.505 99.5967 112.715 98.8123 112.625 98.033C112.625 93.2082 112.625 88.3833 112.766 83.5584C112.766 81.4637 112.766 79.369 112.907 77.2508C112.885 76.7895 112.962 76.3288 113.134 75.9001C113.306 75.4715 113.568 75.0852 113.904 74.7677C114.239 74.4502 114.639 74.209 115.077 74.0607C115.514 73.9125 115.978 73.8606 116.438 73.9087C116.903 73.8635 117.372 73.9197 117.812 74.0735C118.253 74.2274 118.656 74.4751 118.991 74.7996C119.327 75.1242 119.588 75.5177 119.757 75.9532C119.926 76.3886 119.998 76.8554 119.968 77.3214C119.968 87.4183 119.968 97.4917 119.968 107.565C120.138 110.171 119.646 112.778 118.54 115.144C117.433 117.51 115.746 119.558 113.637 121.098C112.003 122.035 110.304 122.853 108.553 123.546Z" fill="#16120F"/>
</g>
<defs>
<clipPath id="clip0_37_96">
<rect width="256" height="256" fill="white"/>
</clipPath>
</defs>
</svg>
