<svg width="256" height="256" viewBox="0 0 256 256" fill="none" xmlns="http://www.w3.org/2000/svg">
<g clip-path="url(#clip0_37_117)">
<rect width="256" height="256" fill="#FF9500"/>
<path d="M102.862 152.199H93.0204C90.5612 152.006 88.2669 150.885 86.602 149.062C85.3542 147.705 84.5117 146.024 84.1704 144.211C83.8291 142.398 84.0027 140.525 84.6714 138.806C85.3402 137.086 86.4772 135.59 87.9531 134.486C89.4291 133.382 91.1848 132.715 93.0204 132.561H108.58L118.616 122.508L91.1144 105.52C88.9753 104.224 87.4163 102.154 86.7608 99.7379C86.1053 97.3219 86.4036 94.7459 87.5939 92.5444C88.1109 91.3132 88.8718 90.1997 89.8307 89.2714C90.7992 88.2835 91.9569 87.5016 93.2344 86.9725C94.5095 86.4942 95.8679 86.2788 97.2281 86.339C98.5884 86.3993 99.9225 86.734 101.15 87.3232L137.113 103.98L154.482 86.4465C156.384 84.7929 158.84 83.921 161.357 84.0056C163.874 84.0903 166.266 85.1253 168.053 86.9029C169.84 88.6805 170.89 91.0693 170.992 93.59C171.094 96.1106 170.24 98.5766 168.603 100.493L151.098 117.891L167.63 154.244C168.179 155.471 168.477 156.796 168.505 158.141C168.547 159.472 168.315 160.799 167.825 162.037C167.326 163.237 166.599 164.329 165.685 165.252C164.757 166.201 163.645 166.95 162.418 167.453C160.22 168.645 157.648 168.944 155.236 168.288C152.824 167.631 150.757 166.069 149.464 163.927L132.504 136.379L122.468 146.432V162.018C122.249 164.471 121.122 166.753 119.308 168.416C117.493 170.078 115.124 171 112.665 171C110.206 171 107.836 170.078 106.022 168.416C104.208 166.753 103.08 164.471 102.862 162.018V152.199Z" fill="#EBFF79"/>
</g>
<defs>
<clipPath id="clip0_37_117">
<rect width="256" height="256" fill="white"/>
</clipPath>
</defs>
</svg>
