<svg width="256" height="256" viewBox="0 0 256 256" fill="none" xmlns="http://www.w3.org/2000/svg">
<g clip-path="url(#clip0_37_102)">
<rect width="256" height="256" fill="#16120F"/>
<path d="M154.689 127.453C154.947 134.961 155.206 142.422 155.465 149.883C155.724 157.344 156.007 164.946 156.218 172.477C156.248 173.713 156.073 174.946 155.701 176.125C155.303 177.635 154.398 178.961 153.138 179.883C151.878 180.804 150.34 181.264 148.781 181.185C147.173 181.004 145.677 180.277 144.541 179.124C143.406 177.972 142.701 176.464 142.544 174.854C142.356 173.293 142.269 171.72 142.285 170.147C142.285 156.543 142.246 142.947 142.167 129.359C142.167 128.7 142.026 127.735 141.579 127.429C138.767 125.454 136.393 122.918 134.607 119.982C132.821 117.045 131.661 113.772 131.2 110.366C128.956 100.354 130.623 89.8632 135.86 81.0401C136.885 78.9975 138.375 77.2241 140.21 75.8628C142.046 74.5015 144.175 73.5903 146.427 73.2026C149.341 72.7577 152.321 73.142 155.027 74.3116C157.732 75.4812 160.054 77.3888 161.726 79.8162C165.316 84.6183 167.508 90.3205 168.057 96.2914C169.057 102.851 168.41 109.556 166.174 115.803C165.329 118.521 163.846 120.997 161.848 123.024C159.849 125.051 157.394 126.57 154.689 127.453Z" fill="#EBFF79"/>
<path d="M107.052 123.546C107.24 129.053 107.475 134.796 107.664 140.539C108.072 151.397 108.456 162.263 108.817 173.136C108.915 174.182 108.789 175.236 108.446 176.228C108.103 177.221 107.553 178.129 106.83 178.891C106.108 179.653 105.232 180.252 104.259 180.648C103.286 181.044 102.241 181.227 101.191 181.185C100.263 181.242 99.3336 181.095 98.4677 180.756C97.6017 180.417 96.8201 179.893 96.1772 179.221C95.5343 178.549 95.0456 177.745 94.745 176.865C94.4443 175.985 94.3391 175.05 94.4366 174.125C94.6013 168.194 94.8602 162.357 95.0956 156.332L96.2959 125.97C96.2959 125.052 96.2959 124.134 96.2959 123.264C88.6467 120.839 85.3517 116.909 85.234 108.977C85.234 99.8453 85.6106 90.6898 85.8224 81.5579C85.8224 80.5223 85.8224 79.4632 85.8224 78.4041C85.8296 77.6685 85.9084 76.9355 86.0578 76.2152C86.2038 75.2035 86.7428 74.2901 87.5579 73.6732C88.3731 73.0564 89.3986 72.7858 90.4119 72.9202C92.4595 73.1556 93.5893 74.5677 93.5657 76.9919C93.5657 81.0166 93.4245 85.0412 93.3539 89.0423C93.3539 92.0784 93.3539 95.1146 93.3539 98.1272C93.3539 100.316 94.2718 101.469 95.9429 101.469C97.6139 101.469 98.5318 100.198 98.5553 98.0801C98.5553 90.9723 98.6103 83.8644 98.7201 76.7566C98.6966 73.7675 100.65 72.2377 103.168 73.2026C103.844 73.4392 104.417 73.8998 104.794 74.5079C105.171 75.116 105.328 75.8348 105.24 76.5447C105.145 83.7153 105.09 90.886 105.075 98.0566C105.075 100.41 106.44 101.752 108.605 101.422C109.377 101.284 110.068 100.856 110.536 100.226C111.003 99.5967 111.214 98.8123 111.124 98.033C111.124 93.2082 111.124 88.3833 111.265 83.5584C111.265 81.4637 111.265 79.369 111.406 77.2508C111.383 76.7895 111.46 76.3288 111.632 75.9001C111.804 75.4715 112.067 75.0852 112.402 74.7677C112.738 74.4502 113.138 74.209 113.575 74.0607C114.013 73.9125 114.477 73.8606 114.936 73.9087C115.401 73.8635 115.87 73.9197 116.311 74.0735C116.752 74.2274 117.154 74.4751 117.49 74.7996C117.826 75.1242 118.087 75.5177 118.255 75.9532C118.424 76.3886 118.496 76.8554 118.467 77.3214C118.467 87.4183 118.467 97.4917 118.467 107.565C118.636 110.171 118.145 112.778 117.038 115.144C115.931 117.51 114.245 119.558 112.136 121.098C110.502 122.035 108.803 122.853 107.052 123.546Z" fill="#EBFF79"/>
</g>
<defs>
<clipPath id="clip0_37_102">
<rect width="256" height="256" fill="white"/>
</clipPath>
</defs>
</svg>
