<svg width="256" height="256" viewBox="0 0 256 256" fill="none" xmlns="http://www.w3.org/2000/svg">
<g clip-path="url(#clip0_37_86)">
<rect width="256" height="256" fill="#FF9500"/>
<path d="M125.946 172L82.261 132.27C77.1414 127.146 74.1863 120.244 74.0085 112.995C73.8307 105.747 76.4437 98.7074 81.3058 93.3376C86.1679 87.9678 92.9059 84.6792 100.123 84.1539C107.339 83.6287 114.481 85.907 120.066 90.5163L125.946 95.7011L131.649 90.5163C134.334 87.7589 137.554 85.5812 141.111 84.1174C144.668 82.6536 148.486 81.9346 152.33 82.0047C156.174 82.0747 159.964 82.9324 163.465 84.5248C166.966 86.1172 170.105 88.4107 172.689 91.2643C175.273 94.1178 177.246 97.4709 178.489 101.117C179.731 104.764 180.215 108.626 179.912 112.467C179.609 116.308 178.525 120.047 176.726 123.452C174.928 126.858 172.453 129.858 169.454 132.27L125.946 172Z" fill="#EBFF79"/>
</g>
<defs>
<clipPath id="clip0_37_86">
<rect width="256" height="256" fill="white"/>
</clipPath>
</defs>
</svg>
