<svg width="256" height="256" viewBox="0 0 256 256" fill="none" xmlns="http://www.w3.org/2000/svg">
<g clip-path="url(#clip0_37_82)">
<rect width="256" height="256" fill="#16120F"/>
<path d="M127.946 172L84.261 132.27C79.1414 127.146 76.1863 120.244 76.0085 112.995C75.8307 105.747 78.4437 98.7074 83.3058 93.3376C88.1679 87.9678 94.9059 84.6792 102.123 84.1539C109.339 83.6287 116.481 85.907 122.066 90.5163L127.946 95.7011L133.649 90.5163C136.334 87.7589 139.554 85.5812 143.111 84.1174C146.668 82.6536 150.486 81.9346 154.33 82.0047C158.174 82.0747 161.964 82.9324 165.465 84.5248C168.966 86.1172 172.105 88.4107 174.689 91.2643C177.273 94.1178 179.246 97.4709 180.489 101.117C181.731 104.764 182.215 108.626 181.912 112.467C181.609 116.308 180.525 120.047 178.726 123.452C176.928 126.858 174.453 129.858 171.454 132.27L127.946 172Z" fill="#A3EA71"/>
</g>
<defs>
<clipPath id="clip0_37_82">
<rect width="256" height="256" fill="white"/>
</clipPath>
</defs>
</svg>
