<svg width="256" height="256" viewBox="0 0 256 256" fill="none" xmlns="http://www.w3.org/2000/svg">
<g clip-path="url(#clip0_37_99)">
<rect width="256" height="256" fill="#EBFF79"/>
<path d="M155.439 127.453C155.698 134.961 155.957 142.422 156.216 149.883C156.475 157.344 156.757 164.946 156.969 172.477C156.999 173.713 156.824 174.946 156.451 176.125C156.054 177.635 155.149 178.961 153.889 179.883C152.629 180.804 151.091 181.264 149.532 181.185C147.924 181.004 146.428 180.277 145.292 179.124C144.157 177.972 143.452 176.464 143.295 174.854C143.106 173.293 143.02 171.72 143.036 170.147C143.036 156.543 142.997 142.947 142.918 129.359C142.918 128.7 142.777 127.735 142.33 127.429C139.518 125.454 137.144 122.918 135.358 119.982C133.572 117.045 132.412 113.772 131.95 110.366C129.707 100.354 131.374 89.8632 136.611 81.0401C137.635 78.9975 139.125 77.2241 140.961 75.8628C142.796 74.5015 144.926 73.5903 147.178 73.2026C150.092 72.7577 153.072 73.142 155.777 74.3116C158.483 75.4812 160.805 77.3888 162.476 79.8162C166.067 84.6183 168.258 90.3205 168.808 96.2914C169.808 102.851 169.16 109.556 166.925 115.803C166.08 118.521 164.597 120.997 162.598 123.024C160.6 125.051 158.145 126.57 155.439 127.453Z" fill="#FA64B5"/>
<path d="M107.803 123.546C107.991 129.053 108.226 134.796 108.414 140.539C108.822 151.397 109.207 162.263 109.568 173.136C109.666 174.182 109.539 175.236 109.197 176.228C108.854 177.221 108.303 178.129 107.581 178.891C106.859 179.653 105.982 180.252 105.01 180.648C104.037 181.044 102.991 181.227 101.942 181.185C101.014 181.242 100.084 181.095 99.2184 180.756C98.3525 180.417 97.5709 179.893 96.928 179.221C96.2851 178.549 95.7963 177.745 95.4957 176.865C95.1951 175.985 95.0898 175.05 95.1873 174.125C95.352 168.194 95.6109 162.357 95.8463 156.332L97.0466 125.97C97.0466 125.052 97.0466 124.134 97.0466 123.264C89.3974 120.839 86.1024 116.909 85.9847 108.977C85.9847 99.8453 86.3613 90.6898 86.5731 81.5579C86.5731 80.5223 86.5731 79.4632 86.5731 78.4041C86.5803 77.6685 86.6591 76.9355 86.8085 76.2152C86.9545 75.2035 87.4935 74.2901 88.3087 73.6732C89.1238 73.0564 90.1493 72.7858 91.1626 72.9202C93.2103 73.1556 94.34 74.5677 94.3165 76.9919C94.3165 81.0166 94.1752 85.0412 94.1046 89.0423C94.1046 92.0784 94.1046 95.1146 94.1046 98.1272C94.1046 100.316 95.0225 101.469 96.6936 101.469C98.3646 101.469 99.2825 100.198 99.3061 98.0801C99.3061 90.9723 99.361 83.8644 99.4708 76.7566C99.4473 73.7675 101.401 72.2377 103.919 73.2026C104.594 73.4392 105.168 73.8998 105.545 74.5079C105.922 75.116 106.079 75.8348 105.99 76.5447C105.896 83.7153 105.841 90.886 105.826 98.0566C105.826 100.41 107.191 101.752 109.356 101.422C110.128 101.284 110.818 100.856 111.286 100.226C111.754 99.5967 111.964 98.8123 111.874 98.033C111.874 93.2082 111.874 88.3833 112.015 83.5584C112.015 81.4637 112.015 79.369 112.157 77.2508C112.134 76.7895 112.211 76.3288 112.383 75.9001C112.555 75.4715 112.818 75.0852 113.153 74.7677C113.489 74.4502 113.889 74.209 114.326 74.0607C114.763 73.9125 115.228 73.8606 115.687 73.9087C116.152 73.8635 116.621 73.9197 117.062 74.0735C117.503 74.2274 117.905 74.4751 118.241 74.7996C118.576 75.1242 118.837 75.5177 119.006 75.9532C119.175 76.3886 119.247 76.8554 119.217 77.3214C119.217 87.4183 119.217 97.4917 119.217 107.565C119.387 110.171 118.896 112.778 117.789 115.144C116.682 117.51 114.996 119.558 112.886 121.098C111.253 122.035 109.554 122.853 107.803 123.546Z" fill="#FA64B5"/>
</g>
<defs>
<clipPath id="clip0_37_99">
<rect width="256" height="256" fill="white"/>
</clipPath>
</defs>
</svg>
